<?xml version="1.0" encoding="UTF-8" standalone="no"?>
<!-- Created with Inkscape (http://www.inkscape.org/) -->

<svg
   xmlns:dc="http://purl.org/dc/elements/1.1/"
   xmlns:cc="http://creativecommons.org/ns#"
   xmlns:rdf="http://www.w3.org/1999/02/22-rdf-syntax-ns#"
   xmlns:svg="http://www.w3.org/2000/svg"
   xmlns="http://www.w3.org/2000/svg"
   xmlns:sodipodi="http://sodipodi.sourceforge.net/DTD/sodipodi-0.dtd"
   xmlns:inkscape="http://www.inkscape.org/namespaces/inkscape"
   width="744.09448819"
   height="1052.3622047"
   id="svg2"
   version="1.1"
   inkscape:version="0.48.3.1 r9886"
   sodipodi:docname="buttons.svg">
  <defs
     id="defs4" />
  <sodipodi:namedview
     id="base"
     pagecolor="#ffffff"
     bordercolor="#666666"
     borderopacity="1.0"
     inkscape:pageopacity="0.0"
     inkscape:pageshadow="2"
     inkscape:zoom="0.97608032"
     inkscape:cx="398.39936"
     inkscape:cy="754.13403"
     inkscape:document-units="px"
     inkscape:current-layer="layer1"
     showgrid="false"
     inkscape:window-width="1366"
     inkscape:window-height="709"
     inkscape:window-x="0"
     inkscape:window-y="27"
     inkscape:window-maximized="1" />
  <metadata
     id="metadata7">
    <rdf:RDF>
      <cc:Work
         rdf:about="">
        <dc:format>image/svg+xml</dc:format>
        <dc:type
           rdf:resource="http://purl.org/dc/dcmitype/StillImage" />
        <dc:title></dc:title>
      </cc:Work>
    </rdf:RDF>
  </metadata>
  <g
     inkscape:label="Layer 1"
     inkscape:groupmode="layer"
     id="layer1">
    <path
       sodipodi:type="arc"
       style="color:#000000;fill:#1506cf;fill-opacity:1;fill-rule:nonzero;stroke:#010070;stroke-width:6.32956791;stroke-miterlimit:4;stroke-opacity:1;stroke-dasharray:none;marker:none;visibility:visible;display:inline;overflow:visible;enable-background:accumulate"
       id="path2985-3"
       sodipodi:cx="257.14285"
       sodipodi:cy="268.07648"
       sodipodi:rx="77.14286"
       sodipodi:ry="78.571426"
       d="m 334.28571,268.07648 a 77.14286,78.571426 0 1 1 -154.28572,0 77.14286,78.571426 0 1 1 154.28572,0 z"
       transform="matrix(0.79722405,0,0,0.78272912,166.44659,73.80483)"
       inkscape:export-filename="/home/pete/code/mame-controller/clients/assets/buttons.png"
       inkscape:export-xdpi="90"
       inkscape:export-ydpi="90" />
    <path
       sodipodi:type="arc"
       style="color:#000000;fill:#cdcf06;fill-opacity:1;fill-rule:nonzero;stroke:#706f00;stroke-width:6.32956791;stroke-miterlimit:4;stroke-opacity:1;stroke-dasharray:none;marker:none;visibility:visible;display:inline;overflow:visible;enable-background:accumulate"
       id="path2985-3-0"
       sodipodi:cx="257.14285"
       sodipodi:cy="268.07648"
       sodipodi:rx="77.14286"
       sodipodi:ry="78.571426"
       d="m 334.28571,268.07648 a 77.14286,78.571426 0 1 1 -154.28572,0 77.14286,78.571426 0 1 1 154.28572,0 z"
       transform="matrix(0.79722405,0,0,0.78272912,166.44659,201.80512)"
       inkscape:export-filename="/home/pete/code/mame-controller/clients/assets/buttons.png"
       inkscape:export-xdpi="90"
       inkscape:export-ydpi="90" />
    <path
       sodipodi:type="arc"
       style="color:#000000;fill:#cf0606;fill-opacity:1;fill-rule:nonzero;stroke:#700000;stroke-width:6.3295679;stroke-miterlimit:4;stroke-opacity:1;stroke-dasharray:none;marker:none;visibility:visible;display:inline;overflow:visible;enable-background:accumulate"
       id="path2985"
       sodipodi:cx="257.14285"
       sodipodi:cy="268.07648"
       sodipodi:rx="77.14286"
       sodipodi:ry="78.571426"
       d="m 334.28571,268.07648 a 77.14286,78.571426 0 1 1 -154.28572,0 77.14286,78.571426 0 1 1 154.28572,0 z"
       transform="matrix(0.79722405,0,0,0.78272912,38.446301,73.804832)"
       inkscape:export-filename="/home/pete/code/mame-controller/clients/assets/buttons.png"
       inkscape:export-xdpi="90"
       inkscape:export-ydpi="90" />
    <path
       sodipodi:type="arc"
       style="color:#000000;fill:#e9e9e9;fill-opacity:1;fill-rule:nonzero;stroke:#9f9f9f;stroke-width:6.32956791;stroke-miterlimit:4;stroke-opacity:1;stroke-dasharray:none;marker:none;visibility:visible;display:inline;overflow:visible;enable-background:accumulate"
       id="path2985-3-0-6"
       sodipodi:cx="257.14285"
       sodipodi:cy="268.07648"
       sodipodi:rx="77.14286"
       sodipodi:ry="78.571426"
       d="m 334.28571,268.07648 a 77.14286,78.571426 0 1 1 -154.28572,0 77.14286,78.571426 0 1 1 154.28572,0 z"
       transform="matrix(0.79722405,0,0,0.78272912,38.446301,201.80497)"
       inkscape:export-filename="/home/pete/code/mame-controller/clients/assets/buttons.png"
       inkscape:export-xdpi="90"
       inkscape:export-ydpi="90" />
    <g
       id="g3901"
       transform="translate(7.171541,138.30829)"
       style="stroke-width:1.1;stroke-miterlimit:4;stroke-dasharray:none"
       inkscape:export-filename="/home/pete/code/mame-controller/clients/android/assets/d-pad.png"
       inkscape:export-xdpi="90"
       inkscape:export-ydpi="90">
      <path
         sodipodi:nodetypes="csssscsssscsssscssssc"
         inkscape:connector-curvature="0"
         id="rect3144"
         d="m 540.27532,218.21107 -53.14063,0 c -2.71863,0 -4.90727,-3.01167 -4.90727,-6.75261 l 0,-44.47469 c 0,-3.74094 2.18865,-6.76062 4.90727,-6.7526 l 53.15084,0.15675 0.0102,-52.98388 c 0,-2.71863 3.01166,-4.90727 6.75261,-4.90727 l 44.47469,0 c 3.74094,0 6.75498,2.18864 6.7526,4.90727 l -0.0465,53.16436 53.0941,0.0237 c 2.71863,0 4.90727,3.01167 4.90727,6.75261 l 0,44.47469 c 0,3.74094 -2.18865,6.76062 -4.90727,6.7526 l -53.15084,-0.15675 -0.0102,52.98388 c 0,2.71863 -3.01166,4.90727 -6.75261,4.90727 l -44.47469,0 c -3.74094,0 -6.7526,-2.18864 -6.7526,-4.90727 l 0,-53.14064"
         style="fill:#898989;fill-opacity:1;stroke:#4e4e4e;stroke-width:4;stroke-miterlimit:4;stroke-opacity:1;stroke-dasharray:none" />
      <path
         sodipodi:nodetypes="ccccc"
         inkscape:connector-curvature="0"
         id="rect3938"
         d="m 502.83608,188.14736 19.48581,-9.26304 0,21.63826 -19.48581,-9.26304 z"
         style="fill:#a8a8a8;fill-opacity:1;stroke:#cbcbcb;stroke-width:4;stroke-linejoin:round;stroke-miterlimit:4;stroke-opacity:1;stroke-dasharray:none" />
      <path
         sodipodi:nodetypes="ccccc"
         inkscape:connector-curvature="0"
         id="rect3938-7"
         d="m 570.35946,123.10543 9.26304,19.48581 -21.63826,0 9.26304,-19.48581 z"
         style="fill:#a8a8a8;fill-opacity:1;stroke:#cbcbcb;stroke-width:4;stroke-linejoin:round;stroke-miterlimit:4;stroke-opacity:1;stroke-dasharray:none" />
      <path
         sodipodi:nodetypes="ccccc"
         inkscape:connector-curvature="0"
         id="rect3938-1"
         d="m 635.62182,190.65584 -19.48581,9.26304 0,-21.63826 19.48581,9.26304 z"
         style="fill:#a8a8a8;fill-opacity:1;stroke:#cbcbcb;stroke-width:4;stroke-linejoin:round;stroke-miterlimit:4;stroke-opacity:1;stroke-dasharray:none" />
      <path
         sodipodi:nodetypes="ccccc"
         inkscape:connector-curvature="0"
         id="rect3938-7-5"
         d="m 568.09844,255.69777 -9.26304,-19.48581 21.63826,0 -9.26304,19.48581 z"
         style="fill:#a8a8a8;fill-opacity:1;stroke:#cbcbcb;stroke-width:4;stroke-linejoin:round;stroke-miterlimit:4;stroke-opacity:1;stroke-dasharray:none" />
    </g>
  </g>
</svg>
